<?xml version="1.0" encoding="UTF-8"?>
<svg id="Capa_1" data-name="Capa 1" xmlns="http://www.w3.org/2000/svg" viewBox="0 0 564.32 54.52">
  <defs>
    <style>
      .cls-1 {
        fill: #224c22;
      }
    </style>
  </defs>
  <path class="cls-1" d="M39.01.9H2.71C.86.9-.44,2.71.14,4.47l15.95,47.81c.37,1.11,1.4,1.85,2.57,1.85h10.98c1.85,0,3.15-1.81,2.57-3.56l-4.32-12.94c-.58-1.75.72-3.56,2.57-3.56h4.6c1.52,0,2.74-1.25,2.71-2.77l-.16-7.14c-.03-1.47-1.23-2.65-2.71-2.65h-10.44c-1.16,0-2.2-.75-2.57-1.85l-.65-1.95c-.58-1.75.72-3.56,2.57-3.56h15.2c1.49,0,2.71-1.21,2.71-2.71V3.61c0-1.5-1.21-2.71-2.71-2.71Z"/>
  <path class="cls-1" d="M80.73,31.79c1.91-1.12,3.49-2.54,4.73-4.26,1.98-2.76,2.97-5.91,2.97-9.47,0-3.31-.76-6.28-2.29-8.91s-3.82-4.71-6.88-6.24c-3.06-1.53-6.74-2.29-11.05-2.29h-20.75c-2.24,0-4.06,1.82-4.06,4.06v45.1c0,2.24,1.82,4.06,4.06,4.06h8.57c2.24,0,4.06-1.82,4.06-4.06v-9.69c0-1.44,1.91-1.94,2.62-.69,2.5,4.46,5.96,10.61,6.37,11.35,1.55,2.79,2.01,3.08,4.6,3.08h12.44c.68,0,1.19-.61,1.08-1.28-.05-.34-.17-.67-.36-.97l-7.55-14.18c-1.17-1.94-.52-4.46,1.44-5.6ZM70.42,22.53c-.8.73-2.01,1.09-3.61,1.09h-2.55c-2.24,0-4.06-1.82-4.06-4.06v-.9c0-2.24,1.82-4.06,4.06-4.06h2.55c1.55,0,2.74.4,3.57,1.2.83.8,1.24,1.91,1.24,3.31,0,1.55-.4,2.69-1.2,3.42Z"/>
  <path class="cls-1" d="M124.43,47.19v-3.95c0-.75-.3-1.42-.79-1.91-.49-.49-1.17-.79-1.91-.79h-13.38c-.75,0-1.42-.3-1.91-.79-.49-.49-.79-1.17-.79-1.91v-2.1c0-.75.3-1.42.79-1.91.49-.49,1.17-.79,1.91-.79h11.12c.75,0,1.42-.3,1.91-.79.49-.49.79-1.17.79-1.91v-7.14c0-.75-.3-1.42-.79-1.91-.49-.49-1.17-.79-1.91-.79h-11.12c-.75,0-1.42-.3-1.91-.79s-.79-1.17-.79-1.91v-1.13c0-.75.3-1.42.79-1.91s1.17-.79,1.91-.79h13.38c.75,0,1.42-.3,1.91-.79.49-.49.79-1.17.79-1.91V3.32c0-.75-.3-1.42-.79-1.91-.49-.49-1.17-.79-1.91-.79h-30.07c-.75,0-1.42.3-1.91.79-.49.49-.79,1.17-.79,1.91v48.04c0,1.37,1.11,2.48,2.48,2.48h30.5c2.6,0,2.5-2.95,2.5-3.63v-3.02Z"/>
  <path class="cls-1" d="M158.68,25.11c-2.18-1.15-4.95-2.35-8.31-3.61-2.91-1.1-5.03-2.04-6.35-2.82-1.33-.78-1.99-1.77-1.99-2.97,0-.85.23-1.52.68-1.99.45-.48,1.03-.71,1.73-.71,1,0,1.85.33,2.56.98.31.29.56.66.74,1.12.5,1.24,1.63,2.11,2.97,2.11h11.59c2.14,0,3.75-2,3.25-4.08-.85-3.54-2.69-6.42-5.51-8.63-3.83-3.01-9.01-4.51-15.52-4.51-3.86,0-7.33.63-10.41,1.88-3.08,1.25-5.51,3.09-7.29,5.53-1.78,2.43-2.67,5.38-2.67,8.83-.05,3.46.73,6.29,2.33,8.49,1.6,2.21,3.52,3.88,5.75,5.04,2.23,1.15,5.05,2.33,8.46,3.53,2.86,1,4.96,1.89,6.31,2.67,1.35.78,2.03,1.79,2.03,3.04,0,.9-.31,1.57-.94,1.99-.34.23-.71.4-1.13.5-2.04.52-4.15-.69-4.9-2.65-.41-1.06-1.4-1.8-2.54-1.8h-11.64c-2.18,0-3.78,2.06-3.23,4.16.98,3.75,4.02,12.62,22.58,12.62,13.69,0,19.55-10.12,19.55-16.18,0-3.12-.8-5.69-2.41-7.74-1.6-2.05-3.5-3.66-5.68-4.81Z"/>
  <path class="cls-1" d="M212.48.9h-7.53c-2.53,0-4.58,2.05-4.58,4.58v10.01c0,2.53-2.05,4.58-4.58,4.58h-6.7c-2.53,0-4.58-2.05-4.58-4.58V5.48c0-2.53-2.05-4.58-4.58-4.58h-7.53c-2.53,0-4.58,2.05-4.58,4.58v46.48c0,1.04.85,1.88,1.89,1.87,4.3-.04,8.6-.04,12.9.01,1.04.01,1.89-.83,1.89-1.87v-14.01c0-2.53,2.05-4.58,4.58-4.58h6.7c2.53,0,4.58,2.05,4.58,4.58v14.01c0,1.01.8,1.84,1.81,1.87,4.32.14,8.63-.18,12.93,0,1.06.04,1.95-.81,1.95-1.87V5.48c0-2.53-2.05-4.58-4.58-4.58Z"/>
  <path class="cls-1" d="M220.52,23.62h.68c.44,0,.8-.32.87-.75.45-2.7,1.28-5.28,2.51-7.59l.12-.23c3.56-6.99,11.46-11.31,20.64-11.31s16.5,4.06,20.19,10.59c.14.27.28.55.44.85.54,1.03,1.53,2.94,1.77,4.19-.95.03-2.29.05-4.15.05-1.06,0-2.16,0-3.21,0-.97,0-1.89,0-2.71,0h-.71s-.1,0-.1,0c-.1,0-.19.01-.29.01-1.43,0-2.58-.98-4.17-2.47l-.09-.08c-1.94-1.64-4.57-2.58-7.22-2.58-1.02,0-2.02.14-2.98.41-3.48.91-6.14,3.61-7.48,7.38-.27.75.31,1.55,1.11,1.55.55,0,1.06-.33,1.25-.85,1.02-2.76,2.94-4.99,5.79-5.73,2.78-.79,5.89-.06,7.96,1.69,1.82,1.71,3.64,3.33,6.33,3.11,3.14,0,8.44.07,11.11-.05.75-.08,1.47-.2,1.87-.77.79-2.26-1.26-5.67-2.35-7.84-9.1-16.2-36.78-15.73-45.15.72l-.13.24c-1.38,2.61-2.31,5.49-2.79,8.47-.09.54.34,1.02.88,1.02Z"/>
  <path class="cls-1" d="M267.33,33.83c-3.65.07-8.78-.22-12.16.17-1.82.3-2.9,1.66-4.24,2.78-2.32,2.1-6.13,2.83-9.2,1.49-2.21-.91-3.77-2.84-4.68-5.19-.18-.47-.62-.8-1.12-.8h-.06c-.82,0-1.41.82-1.12,1.59,1.09,2.9,3.05,5.42,6.05,6.66,1.29.57,2.74.86,4.27.86,2.78,0,5.5-1.01,7.46-2.76.31-.26.6-.53.9-.8.89-.81,1.43-1.28,2.09-1.41,1.49-.16,3.37-.18,4.67-.18.99,0,2,.01,3,.03.97.01,1.93.02,2.82.02.47,0,.93,0,1.37-.01,0,0,.3,0,.36,0-.06.23-.16.55-.31.96l-.05.14c-2.78,8.85-11.49,14.57-22.21,14.57-2.71,0-5.37-.39-7.9-1.16l-.09-.03c-5.82-1.54-10.51-5.76-13.18-11.88-.78-1.78-1.35-3.67-1.74-5.6-.11-.58-.61-1-1.2-1-.78,0-1.35.72-1.2,1.49,1.79,8.93,7.46,16.9,16.69,19.35,13,3.97,28.9-1.47,33.15-15.02,1.17-3.06.63-4.34-2.37-4.27Z"/>
  <path class="cls-1" d="M293.01,40.73c1.53.62,3.33.96,5.14.96,3.76,0,7.14-1.4,9.26-3.85l.16-.18c.88-1.08,1.59-2.36,2.12-3.76.3-.78-.31-1.62-1.15-1.62-.52,0-.96.33-1.15.82-.42,1.11-.98,2.11-1.67,2.96l-.16.19c-2.7,3.12-7.91,3.74-11.69,2.21-2.41-.91-4.05-2.91-4.98-5.35-.19-.49-.63-.82-1.15-.82-.84,0-1.45.85-1.15,1.64,1.17,3.08,3.29,5.63,6.42,6.82Z"/>
  <path class="cls-1" d="M298.25,13.57c-5.72,0-10.64,3.58-12.01,8.62-.13.48.16.98.64,1.12.08.02.16.05.24.07.68.18,1.37-.19,1.59-.85,1.68-5.09,7.8-7.69,12.94-5.97,2.74.81,4.6,2.86,5.66,5.41.41.99,1.69,1.36,2.53.7.15-.12.23-.23.21-.31-1.29-4.15-4.01-7.03-7.66-8.12-1.32-.44-2.71-.66-4.13-.66Z"/>
  <path class="cls-1" d="M273.05,23.62h.1c.57,0,1.04-.41,1.15-.97,1.39-7.16,5.73-13.2,11.96-16.34,3.74-1.98,7.69-2.97,11.78-2.97,6.99,0,13.68,2.93,18.35,8.04,2.92,3.19,4.83,7.04,5.65,11.22.11.58.61,1.01,1.2,1.01.78,0,1.35-.72,1.2-1.48-3.31-17.03-22.93-26.65-39.28-18-7.4,3.73-11.82,10.59-13.26,18.07-.14.73.4,1.42,1.15,1.42Z"/>
  <path class="cls-1" d="M323.12,32.28c-.59,0-1.07.42-1.19.99-2.41,11.84-13.55,18.8-24.02,18.8-4.18,0-8.31-1.08-11.94-3.12l-.24-.13c-5.83-3.17-9.88-8.86-11.33-15.56-.12-.57-.61-.98-1.19-.98-.78,0-1.36.73-1.19,1.49,1.51,7.03,5.67,13.46,12.51,17.17l.24.14c15.63,8.8,36-.14,39.53-17.32.16-.76-.41-1.48-1.19-1.48Z"/>
  <path class="cls-1" d="M360.76,22.39c0,.68.54,1.23,1.22,1.23s1.21-.54,1.22-1.21c.03-3.02,0-6.61-.02-9.95-.03-3.32-.05-6.49,0-8.12.89-.08,1.83-.09,2.55-.09.85,0,1.73.02,2.63.04.95.02,1.91.04,2.86.04.63,0,1.26,0,1.87-.03h.12c.47,0,.97,0,1.4.01.02,3.31.03,10.33.03,18.09,0,.67.55,1.22,1.22,1.22s1.22-.55,1.22-1.22c0-9.27,0-17.54-.04-19.63-.05-.36-.18-.58-.53-.71-.52-.2-1.66-.19-3.47-.2-3.97.16-8.54-.34-11.54.26-.53.22-.66.65-.72,1.21-.19,2.17.05,12.19-.02,19.08Z"/>
  <path class="cls-1" d="M343.43,33.49c0-.67-.53-1.21-1.2-1.21h-.04c-.66,0-1.2.53-1.2,1.2,0,1.76,0,5.04,0,7.07.02,3.92.04,7.96-.05,10.59h-.5c-.28,0-.56,0-.84.02h-4.92c-.2,0-.5,0-.8,0-.5,0-1.03,0-1.56.02-.53,0-1.07.02-1.59.02-.41,0-.76,0-1.05-.02-.25-3.39-.28-10.51-.25-18.02,0-.68-.54-1.23-1.22-1.23s-1.22.54-1.22,1.22c-.05,9.48.02,17.99.5,20.19,1.46.51,4.96.21,7.2.28,1.78,0,3.62,0,5.02,0,1.57-.14,3.21.39,3.62-1.19.23-3.97.05-12.66.09-18.92Z"/>
  <path class="cls-1" d="M328.3,23.62c.67,0,1.21-.54,1.22-1.21,0-.34,0-.68,0-1.02.07-7.32.13-13.74.05-17.08h.4c.41,0,.85,0,1.33,0,.84,0,1.78,0,2.77-.02,1.06,0,2.18-.02,3.27-.02,2.13,0,3.65.04,4.78.12.12.13.31.42.46.65l.07.1c1.35,1.96,3.68,5.61,6.15,9.48,2.1,3.29,3.92,6.14,5.43,8.45.23.34.61.55,1.02.55.97,0,1.55-1.08,1.02-1.89-3.93-6-9.24-14.54-11.58-17.94-.6-.9-1.07-1.67-2.21-1.82-3.4-.28-9.3-.06-12.51-.12-2.49.08-2.86-.04-2.87,1.49.14,2.9.06,10.54-.02,19.04,0,.68.54,1.23,1.22,1.23Z"/>
  <path class="cls-1" d="M375.85,32.28c-.67,0-1.22.55-1.22,1.22,0,.99,0,1.97,0,2.93,0,6.49,0,12.15,0,15.06-1.01.05-2.11.05-2.97.05-.99,0-2.01-.01-3-.02-.94-.01-1.86-.02-2.69-.02-.54,0-1.04,0-1.5.02-.36-.02-.7-.02-1-.02h-.51c-.49,0-.71-.01-.84-.05-1.88-2.51-5.6-8.22-8.9-13.29-1.21-1.87-2.4-3.69-3.48-5.33-.23-.34-.61-.54-1.02-.54-.97,0-1.56,1.08-1.02,1.89,4.31,6.56,10.32,15.98,12.76,19.13,1.17.86,2.11.57,3.99.66,3.27-.08,9.09.2,12.06-.17l.09-.03c.52-.23.46-.75.47-1.29,0-2.75,0-10.42,0-18.96,0-.67-.55-1.22-1.22-1.22Z"/>
  <path class="cls-1" d="M395.87,32.28c-.68,0-1.23.54-1.23,1.22,0,1.85,0,5.36,0,7.4.02,3.92.04,7.96-.05,10.59h-.5c-.28,0-.56,0-.84.02h-4.92c-.2,0-.5,0-.8,0-.5,0-1.03,0-1.56.02-.53,0-1.07.02-1.59.02-.41,0-.76,0-1.05-.02-.25-3.39-.28-10.51-.25-18.02,0-.68-.54-1.23-1.22-1.23s-1.22.54-1.22,1.22c-.05,9.48.02,17.99.5,20.19,1.46.51,4.96.21,7.2.28,1.78,0,3.62,0,5.02,0,1.57-.14,3.21.39,3.62-1.19.21-3.53.14-15.42.11-19.27,0-.68-.55-1.22-1.23-1.22Z"/>
  <path class="cls-1" d="M381.95,23.62c.67,0,1.21-.54,1.22-1.21,0-.34,0-.68,0-1.02.07-7.32.13-13.74.05-17.08h.4c.41,0,.85,0,1.33,0,.84,0,1.78,0,2.77-.02,1.06,0,2.18-.02,3.27-.02,2.13,0,3.65.04,4.78.12.12.13.31.42.46.65l.07.1c1.35,1.95,3.68,5.61,6.14,9.47,2.1,3.3,3.92,6.14,5.44,8.46.23.34.61.55,1.02.55.97,0,1.55-1.08,1.02-1.89-3.93-6-9.24-14.53-11.58-17.94-.6-.9-1.07-1.67-2.21-1.82-3.4-.28-9.3-.06-12.51-.12-2.49.08-2.86-.04-2.87,1.49.14,2.9.06,10.54-.02,19.04,0,.68.54,1.23,1.22,1.23Z"/>
  <path class="cls-1" d="M429.5,32.28c-.67,0-1.22.55-1.22,1.22,0,.99,0,1.97,0,2.93,0,6.49,0,12.15,0,15.06-1.01.05-2.11.05-2.97.05-.99,0-2.01-.01-3-.02-.94-.01-1.86-.02-2.69-.02-.54,0-1.04,0-1.5.02-.36-.02-.7-.02-1-.02h-.51c-.49,0-.71-.01-.84-.05-1.88-2.51-5.6-8.22-8.9-13.29-1.21-1.87-2.4-3.69-3.48-5.33-.23-.34-.61-.54-1.02-.54-.97,0-1.56,1.08-1.02,1.89,4.31,6.56,10.32,15.98,12.76,19.13,1.17.86,2.11.57,3.99.66,3.27-.08,9.09.2,12.06-.17l.09-.03c.52-.23.46-.75.47-1.29,0-2.75,0-10.42,0-18.96,0-.67-.55-1.22-1.22-1.22Z"/>
  <path class="cls-1" d="M414.41,22.39c0,.68.54,1.23,1.22,1.23s1.21-.54,1.22-1.21c.03-3.02,0-6.61-.02-9.95-.03-3.32-.05-6.49,0-8.12.89-.08,1.83-.09,2.55-.09.85,0,1.73.02,2.63.04.95.02,1.91.04,2.86.04.63,0,1.26,0,1.87-.03h.12c.47,0,.97,0,1.4.01.02,3.31.03,10.33.03,18.09,0,.67.55,1.22,1.22,1.22s1.22-.55,1.22-1.22c0-9.27,0-17.54-.04-19.63-.05-.36-.18-.58-.53-.71-.52-.2-1.66-.19-3.47-.2-3.97.16-8.54-.34-11.54.26-.53.22-.66.65-.72,1.21-.19,2.17.05,12.19-.02,19.08Z"/>
  <path class="cls-1" d="M435.62,23.62c.67,0,1.22-.55,1.22-1.22,0-7.72,0-14.75,0-18.1,2.85,0,8.64,0,14.5,0s12.31,0,15.33,0c0,.09.01.77.01.77,0,.5,0,1.15,0,1.86,0,1.78.02,3.99-.03,5.43-1.02.09-2.38.14-4.1.14-1.25,0-2.54-.02-3.78-.04-1.19-.02-2.34-.04-3.37-.04-1.29,0-2.23.03-2.97.1-1.53.16-2.62.78-3.3,1.87l-.24.41-.07.2c-.71,2.02-.83,4.91.52,6.81.72,1.02,1.77,1.65,3,1.82h13.27c.6,0,1.08-.48,1.08-1.08h0c0-.6-.48-1.08-1.07-1.08-2.74,0-9.96-.04-12.54-.23-2.59.07-2.67-3.41-1.96-5.42l.08-.14c.31-.5.84-.67,1.44-.73,3.49-.31,11.8.36,15.6-.33.77-.42.77-1.11.86-2.09.07-2.02.03-5.46.03-7.51-.05-2.27.09-3.23-1.89-3.16-5.51,0-26.44,0-31.29,0-.9.01-1.64-.06-1.55,1.09,0,2.39,0,10.45,0,19.45,0,.67.55,1.22,1.22,1.22Z"/>
  <path class="cls-1" d="M468.81,41.87c-.04-.15-.1-.29-.2-.4-.58-.62-1.94-.51-4.15-.53-2.5,0-5.8,0-8.36,0-1.9-.19-4.59.71-5.16-1.57-.34-2.28-.65-5.12,2.39-4.94,2.87-.23,9.75-.17,12.35-.13.56,0,1.01-.44,1.01-1.01,0-.56-.45-1.01-1.01-1.01h-15.14c-.68,0-.83.28-.95.41-1.61,1.86-1.42,4.74-1.08,7.03l.02.11.03.11c.39,1.57,1.58,3.45,5.06,3.45.33,0,.67-.01,1.01-.03.27-.01.54-.02.8-.02.14,0,.29,0,.42.02h.12s9.6.02,9.6.02c.3,0,.7,0,1.05.01.17,1.27.12,2.95.07,4.49-.04,1.21-.08,2.47-.02,3.59,0,0,0,0-.01.01-1.54,0-3.23.02-5.01.03-4.13.02-8.76.05-13.26.05s-8.51-.03-11.57-.09c0-3.36,0-10.31,0-17.96,0-.67-.55-1.22-1.22-1.22s-1.22.55-1.22,1.22c0,8.83,0,16.74,0,19.25.03.49-.05.94.44,1.11,9.17.24,24.15.08,33.17.05,1.24-.11,1.05-1.6,1.11-2.56-.16-2.84.42-6.92-.31-9.48Z"/>
  <path class="cls-1" d="M517.93,33.83c-3.65.07-8.78-.22-12.16.17-1.82.3-2.9,1.66-4.24,2.78-2.32,2.1-6.13,2.83-9.2,1.49-2.21-.91-3.77-2.84-4.68-5.19-.18-.47-.62-.8-1.12-.8h-.06c-.82,0-1.41.82-1.12,1.59,1.09,2.9,3.05,5.42,6.05,6.66,1.29.57,2.74.86,4.27.86,2.79,0,5.5-1.01,7.46-2.76.31-.26.61-.53.9-.8.89-.81,1.43-1.28,2.09-1.41,1.49-.16,3.37-.18,4.67-.18.99,0,2,.01,3,.03.97.01,1.93.02,2.82.02.47,0,.93,0,1.37-.01,0,0,.3,0,.36,0-.06.23-.16.55-.31.96l-.05.14c-2.78,8.85-11.5,14.57-22.21,14.57-2.71,0-5.37-.39-7.9-1.16l-.09-.03c-5.82-1.54-10.51-5.76-13.19-11.88-.78-1.79-1.36-3.69-1.74-5.63-.11-.56-.59-.97-1.16-.97h-.08c-.74,0-1.31.67-1.17,1.39,1.77,8.97,7.44,16.99,16.71,19.44,13,3.97,28.9-1.47,33.15-15.02,1.17-3.06.63-4.34-2.37-4.27Z"/>
  <path class="cls-1" d="M471.39,23.62h.21c.55,0,1.01-.4,1.11-.95.45-2.63,1.28-5.14,2.47-7.4l.13-.24c3.56-6.99,11.46-11.31,20.64-11.31s16.5,4.06,20.19,10.59c.13.27.28.55.44.85.54,1.03,1.53,2.94,1.77,4.19-.95.03-2.29.05-4.15.05-1.06,0-2.16,0-3.21,0-.97,0-1.89,0-2.71,0h-.71s-.1,0-.1,0c-.1,0-.2.01-.29.01-1.43,0-2.58-.98-4.17-2.47l-.09-.08c-1.94-1.64-4.57-2.58-7.22-2.58-1.02,0-2.02.14-2.98.41-3.49.92-6.17,3.63-7.5,7.43-.26.73.3,1.5,1.07,1.5h.21c.49,0,.9-.32,1.07-.77,1.02-2.8,2.95-5.06,5.82-5.81,2.78-.79,5.89-.06,7.96,1.69,1.82,1.71,3.64,3.33,6.33,3.11,3.14,0,8.44.07,11.11-.05.75-.08,1.47-.2,1.87-.77.79-2.26-1.26-5.67-2.35-7.84-9.1-16.2-36.78-15.73-45.15.72l-.13.24c-1.33,2.52-2.24,5.28-2.73,8.15-.12.7.4,1.34,1.11,1.34Z"/>
  <path class="cls-1" d="M564.12,2.48l-.04-.1c-.13-.32-.35-.44-.71-.49-4.72-.02-35.04-.11-42.02.02-1.2.38-.78,1.45-.92,3.2.08,2.73-.21,6.27.2,8.36.24,1.1,1.37,1.27,2.35,1.31,2.29.08,6.68,0,8.82.05,2.27.04,2.32.38,2.31,2.05.02,1.31.02,3.23.02,5.53,0,.67.55,1.23,1.22,1.23s1.22-.55,1.22-1.22c0-2.3,0-4.25-.02-5.56.02-3.12-1.29-4.39-4.7-4.45-.63-.02-1.46-.02-2.38-.02h-3.21c-1.27,0-2.48,0-3.33-.03,0,0,0,0,0,0-.11-1.09-.09-2.64-.06-4.14.02-1.01.03-2.06,0-3.02.02-.3.03-.58.03-.84,2.91-.03,7.96-.05,15.04-.05,9.27,0,19.54.03,23.88.04.08,1.58.04,3.59.02,5.3-.01.91-.03,1.77-.03,2.5,0,.07,0,.13,0,.19-.92.05-2.32.06-3.32.06h-3.64c-1.25-.01-2.06,0-2.64.03-.53,0-2.17.03-3.29,1.25-.45.49-.96,1.34-.9,2.62-.02,1.67-.02,3.78-.02,6.12,0,.67.55,1.22,1.22,1.22h0c.67,0,1.22-.55,1.22-1.22,0-2.37,0-4.5.02-6.18-.09-1.18.88-1.36,1.86-1.38,2.13-.1,7.55.06,9.87-.1,1.54-.02,2.09-1.13,2.07-2.62,0-2.71.2-7.23-.15-9.64Z"/>
  <path class="cls-1" d="M549.36,32.28c-.74,0-1.34.6-1.34,1.33,0,3.82.02,14.72-.03,17.9-.44,0-.95,0-1.45,0h-1.78c-.32,0-.72,0-1.13,0-.7,0-1.46,0-2.23.02-.79,0-1.59.02-2.37.02-.7,0-1.59,0-2.42-.04-.09-3.78-.08-10.97-.06-18,0-.68-.54-1.22-1.22-1.22s-1.22.54-1.22,1.22c-.03,8.24-.04,16.77.12,19.76.09.28.27.44.62.54,2.4.33,6.97.11,9.92.16,1.72,0,3.15.01,4.05-.03.95-.09,1.42-.07,1.59-.87.09-3.1.08-11.37.06-19.67,0-.61-.5-1.1-1.11-1.1Z"/>
  <path class="cls-1" d="M550.43,26.71H220.88c-.58,0-1.05.36-1.05.8s.47.8,1.05.8h329.55c.58,0,1.05-.36,1.05-.8s-.47-.8-1.05-.8Z"/>
</svg>